<svg width="36" height="60" viewBox="0 0 36 60" fill="none" xmlns="http://www.w3.org/2000/svg">
<path d="M31 0H11C9.67392 0 8.40215 0.526784 7.46447 1.46447C6.52678 2.40215 6 3.67392 6 5V12H5C3.67392 12 2.40215 12.5268 1.46447 13.4645C0.526784 14.4021 0 15.6739 0 17V49C0 50.3261 0.526784 51.5979 1.46447 52.5355C2.40215 53.4732 3.67392 54 5 54V57C5.00237 57.7949 5.31921 58.5566 5.8813 59.1187C6.4434 59.6808 7.20508 59.9976 8 60H26C26.7949 59.9976 27.5566 59.6808 28.1187 59.1187C28.6808 58.5566 28.9976 57.7949 29 57V54C30.3261 54 31.5979 53.4732 32.5355 52.5355C33.4732 51.5979 34 50.3261 34 49V17C34 15.6739 33.4732 14.4021 32.5355 13.4645C31.5979 12.5268 30.3261 12 29 12H28V10H35C35.2652 10 35.5196 9.89464 35.7071 9.70711C35.8946 9.51957 36 9.26522 36 9V5C36 3.67392 35.4732 2.40215 34.5355 1.46447C33.5979 0.526784 32.3261 0 31 0ZM8 5C8.00237 4.20508 8.31921 3.4434 8.8813 2.8813C9.4434 2.31921 10.2051 2.00237 11 2H27.03C26.3652 2.85902 26.003 3.91376 26 5V16H8V5ZM19 58H8C7.73478 58 7.48043 57.8946 7.29289 57.7071C7.10536 57.5196 7 57.2652 7 57V54H11V55C11 55.2652 11.1054 55.5196 11.2929 55.7071C11.4804 55.8946 11.7348 56 12 56C12.2652 56 12.5196 55.8946 12.7071 55.7071C12.8946 55.5196 13 55.2652 13 55V54H19V58ZM23 58H21V54H23V58ZM27 57C27 57.2652 26.8946 57.5196 26.7071 57.7071C26.5196 57.8946 26.2652 58 26 58H25V54H27V57ZM29 14C29.7949 14.0024 30.5566 14.3192 31.1187 14.8813C31.6808 15.4434 31.9976 16.2051 32 17V49C31.9976 49.7949 31.6808 50.5566 31.1187 51.1187C30.5566 51.6808 29.7949 51.9976 29 52H5C4.20508 51.9976 3.4434 51.6808 2.8813 51.1187C2.31921 50.5566 2.00237 49.7949 2 49V17C2.00237 16.2051 2.31921 15.4434 2.8813 14.8813C3.4434 14.3192 4.20508 14.0024 5 14H6V16H5C4.73478 16 4.48043 16.1054 4.29289 16.2929C4.10536 16.4804 4 16.7348 4 17C4 17.2652 4.10536 17.5196 4.29289 17.7071C4.48043 17.8946 4.73478 18 5 18H29C29.2652 18 29.5196 17.8946 29.7071 17.7071C29.8946 17.5196 30 17.2652 30 17C30 16.7348 29.8946 16.4804 29.7071 16.2929C29.5196 16.1054 29.2652 16 29 16H28V14H29ZM34 8H28V5C28 4.20435 28.3161 3.44129 28.8787 2.87868C29.4413 2.31607 30.2044 2 31 2C31.7956 2 32.5587 2.31607 33.1213 2.87868C33.6839 3.44129 34 4.20435 34 5V8Z" fill="#16B2DA"/>
<path d="M29 20H5C4.73478 20 4.48043 20.1054 4.29289 20.2929C4.10536 20.4804 4 20.7348 4 21V27C4 27.2652 4.10536 27.5196 4.29289 27.7071C4.48043 27.8946 4.73478 28 5 28H29C29.2652 28 29.5196 27.8946 29.7071 27.7071C29.8946 27.5196 30 27.2652 30 27V21C30 20.7348 29.8946 20.4804 29.7071 20.2929C29.5196 20.1054 29.2652 20 29 20ZM28 26H6V22H28V26Z" fill="#16B2DA"/>
<path d="M21 6H23C23.2652 6 23.5196 5.89464 23.7071 5.70711C23.8946 5.51957 24 5.26522 24 5C24 4.73478 23.8946 4.48043 23.7071 4.29289C23.5196 4.10536 23.2652 4 23 4H21C20.7348 4 20.4804 4.10536 20.2929 4.29289C20.1054 4.48043 20 4.73478 20 5C20 5.26522 20.1054 5.51957 20.2929 5.70711C20.4804 5.89464 20.7348 6 21 6Z" fill="#16B2DA"/>
<path d="M11 6H17C17.2652 6 17.5196 5.89464 17.7071 5.70711C17.8946 5.51957 18 5.26522 18 5C18 4.73478 17.8946 4.48043 17.7071 4.29289C17.5196 4.10536 17.2652 4 17 4H11C10.7348 4 10.4804 4.10536 10.2929 4.29289C10.1054 4.48043 10 4.73478 10 5C10 5.26522 10.1054 5.51957 10.2929 5.70711C10.4804 5.89464 10.7348 6 11 6Z" fill="#16B2DA"/>
<path d="M21 10H23C23.2652 10 23.5196 9.89464 23.7071 9.70711C23.8946 9.51957 24 9.26522 24 9C24 8.73478 23.8946 8.48043 23.7071 8.29289C23.5196 8.10536 23.2652 8 23 8H21C20.7348 8 20.4804 8.10536 20.2929 8.29289C20.1054 8.48043 20 8.73478 20 9C20 9.26522 20.1054 9.51957 20.2929 9.70711C20.4804 9.89464 20.7348 10 21 10Z" fill="#16B2DA"/>
<path d="M11 10H17C17.2652 10 17.5196 9.89464 17.7071 9.70711C17.8946 9.51957 18 9.26522 18 9C18 8.73478 17.8946 8.48043 17.7071 8.29289C17.5196 8.10536 17.2652 8 17 8H11C10.7348 8 10.4804 8.10536 10.2929 8.29289C10.1054 8.48043 10 8.73478 10 9C10 9.26522 10.1054 9.51957 10.2929 9.70711C10.4804 9.89464 10.7348 10 11 10Z" fill="#16B2DA"/>
<path d="M21 14H23C23.2652 14 23.5196 13.8946 23.7071 13.7071C23.8946 13.5196 24 13.2652 24 13C24 12.7348 23.8946 12.4804 23.7071 12.2929C23.5196 12.1054 23.2652 12 23 12H21C20.7348 12 20.4804 12.1054 20.2929 12.2929C20.1054 12.4804 20 12.7348 20 13C20 13.2652 20.1054 13.5196 20.2929 13.7071C20.4804 13.8946 20.7348 14 21 14Z" fill="#16B2DA"/>
<path d="M11 14H17C17.2652 14 17.5196 13.8946 17.7071 13.7071C17.8946 13.5196 18 13.2652 18 13C18 12.7348 17.8946 12.4804 17.7071 12.2929C17.5196 12.1054 17.2652 12 17 12H11C10.7348 12 10.4804 12.1054 10.2929 12.2929C10.1054 12.4804 10 12.7348 10 13C10 13.2652 10.1054 13.5196 10.2929 13.7071C10.4804 13.8946 10.7348 14 11 14Z" fill="#16B2DA"/>
<path d="M19 30H15C14.4696 30 13.9609 30.2107 13.5858 30.5858C13.2107 30.9609 13 31.4696 13 32V34C13 34.5304 13.2107 35.0391 13.5858 35.4142C13.9609 35.7893 14.4696 36 15 36H19C19.5304 36 20.0391 35.7893 20.4142 35.4142C20.7893 35.0391 21 34.5304 21 34V32C21 31.4696 20.7893 30.9609 20.4142 30.5858C20.0391 30.2107 19.5304 30 19 30ZM15 34V32H19V34H15Z" fill="#16B2DA"/>
<path d="M10 30H6C5.46957 30 4.96086 30.2107 4.58579 30.5858C4.21071 30.9609 4 31.4696 4 32V34C4 34.5304 4.21071 35.0391 4.58579 35.4142C4.96086 35.7893 5.46957 36 6 36H10C10.5304 36 11.0391 35.7893 11.4142 35.4142C11.7893 35.0391 12 34.5304 12 34V32C12 31.4696 11.7893 30.9609 11.4142 30.5858C11.0391 30.2107 10.5304 30 10 30ZM6 34V32H10V34H6Z" fill="#16B2DA"/>
<path d="M28 30H24C23.4696 30 22.9609 30.2107 22.5858 30.5858C22.2107 30.9609 22 31.4696 22 32V34C22 34.5304 22.2107 35.0391 22.5858 35.4142C22.9609 35.7893 23.4696 36 24 36H28C28.5304 36 29.0391 35.7893 29.4142 35.4142C29.7893 35.0391 30 34.5304 30 34V32C30 31.4696 29.7893 30.9609 29.4142 30.5858C29.0391 30.2107 28.5304 30 28 30ZM24 34V32H28V34H24Z" fill="#16B2DA"/>
<path d="M19 37H15C14.4696 37 13.9609 37.2107 13.5858 37.5858C13.2107 37.9609 13 38.4696 13 39V41C13 41.5304 13.2107 42.0391 13.5858 42.4142C13.9609 42.7893 14.4696 43 15 43H19C19.5304 43 20.0391 42.7893 20.4142 42.4142C20.7893 42.0391 21 41.5304 21 41V39C21 38.4696 20.7893 37.9609 20.4142 37.5858C20.0391 37.2107 19.5304 37 19 37ZM15 41V39H19V41H15Z" fill="#16B2DA"/>
<path d="M10 37H6C5.46957 37 4.96086 37.2107 4.58579 37.5858C4.21071 37.9609 4 38.4696 4 39V41C4 41.5304 4.21071 42.0391 4.58579 42.4142C4.96086 42.7893 5.46957 43 6 43H10C10.5304 43 11.0391 42.7893 11.4142 42.4142C11.7893 42.0391 12 41.5304 12 41V39C12 38.4696 11.7893 37.9609 11.4142 37.5858C11.0391 37.2107 10.5304 37 10 37ZM6 41V39H10V41H6Z" fill="#16B2DA"/>
<path d="M28 37H24C23.4696 37 22.9609 37.2107 22.5858 37.5858C22.2107 37.9609 22 38.4696 22 39V41C22 41.5304 22.2107 42.0391 22.5858 42.4142C22.9609 42.7893 23.4696 43 24 43H28C28.5304 43 29.0391 42.7893 29.4142 42.4142C29.7893 42.0391 30 41.5304 30 41V39C30 38.4696 29.7893 37.9609 29.4142 37.5858C29.0391 37.2107 28.5304 37 28 37ZM24 41V39H28V41H24Z" fill="#16B2DA"/>
<path d="M19 44H15C14.4696 44 13.9609 44.2107 13.5858 44.5858C13.2107 44.9609 13 45.4696 13 46V48C13 48.5304 13.2107 49.0391 13.5858 49.4142C13.9609 49.7893 14.4696 50 15 50H19C19.5304 50 20.0391 49.7893 20.4142 49.4142C20.7893 49.0391 21 48.5304 21 48V46C21 45.4696 20.7893 44.9609 20.4142 44.5858C20.0391 44.2107 19.5304 44 19 44ZM15 48V46H19V48H15Z" fill="#16B2DA"/>
<path d="M10 44H6C5.46957 44 4.96086 44.2107 4.58579 44.5858C4.21071 44.9609 4 45.4696 4 46V48C4 48.5304 4.21071 49.0391 4.58579 49.4142C4.96086 49.7893 5.46957 50 6 50H10C10.5304 50 11.0391 49.7893 11.4142 49.4142C11.7893 49.0391 12 48.5304 12 48V46C12 45.4696 11.7893 44.9609 11.4142 44.5858C11.0391 44.2107 10.5304 44 10 44ZM6 48V46H10V48H6Z" fill="#16B2DA"/>
<path d="M28 44H24C23.4696 44 22.9609 44.2107 22.5858 44.5858C22.2107 44.9609 22 45.4696 22 46V48C22 48.5304 22.2107 49.0391 22.5858 49.4142C22.9609 49.7893 23.4696 50 24 50H28C28.5304 50 29.0391 49.7893 29.4142 49.4142C29.7893 49.0391 30 48.5304 30 48V46C30 45.4696 29.7893 44.9609 29.4142 44.5858C29.0391 44.2107 28.5304 44 28 44ZM24 48V46H28V48H24Z" fill="#16B2DA"/>
</svg>
