<svg width="64" height="64" viewBox="0 0 64 64" fill="none" xmlns="http://www.w3.org/2000/svg">
<g clip-path="url(#clip0_203_292)">
<path d="M63.9957 52.6829L63.2683 37.4062C63.1253 34.398 62.5695 31.4228 61.6165 28.5629L59.7858 23.0712C59.0192 20.7712 57.1884 18.9405 54.8884 18.1738L52.9548 17.5291C53.2641 16.7094 53.4412 15.8256 53.4412 14.899C53.4412 10.7735 50.085 7.41722 45.9595 7.41722C41.834 7.41722 38.4777 10.7735 38.4777 14.899C38.4777 18.1262 40.5353 20.8745 43.4045 21.9218C41.7972 23.7157 39.7221 24.9754 37.378 25.5615L34.5494 26.2692C33.0865 26.6345 32.0647 27.9429 32.0647 29.4511C32.0647 30.4025 32.477 31.3054 33.1956 31.9291C33.9143 32.5522 34.8672 32.8335 35.8082 32.6973L44.3708 31.4745C46.2971 31.2011 48.1941 32.1003 49.1961 33.7713C49.825 34.8193 50.0328 36.0556 49.7807 37.2518L46.6561 52.0927C46.4239 53.1959 46.6983 54.3305 47.4087 55.2057C48.119 56.081 49.1726 56.583 50.3 56.583C52.0118 56.583 53.4971 55.4234 53.9119 53.7628L56.0115 45.3652L56.4942 53.0923C56.6168 55.0498 58.2493 56.5832 60.2769 56.5832C61.305 56.5832 62.2616 56.1735 62.9714 55.4292C63.6806 54.6848 64.0442 53.7094 63.9957 52.6829ZM40.6152 14.8988C40.6152 11.9522 43.0127 9.55473 45.9594 9.55473C48.906 9.55473 51.3035 11.9522 51.3035 14.8988C51.3035 17.8455 48.906 20.243 45.9594 20.243C43.0127 20.243 40.6152 17.8455 40.6152 14.8988ZM61.4239 53.9541C61.1217 54.2709 60.7146 54.4453 60.21 54.4453C59.3749 54.4453 58.6798 53.7923 58.6276 52.9584L57.7143 38.3461C57.6814 37.82 57.2696 37.3969 56.7451 37.3488C56.22 37.294 55.7384 37.6426 55.6105 38.1535L51.8379 53.2439C51.661 53.9516 51.0289 54.4453 50.2998 54.4453C49.8197 54.4453 49.3709 54.2312 49.0682 53.8586C48.7659 53.486 48.649 53.0028 48.7478 52.533L51.8723 37.6921C52.2361 35.9668 51.9365 34.1835 51.0289 32.6711C49.5823 30.2605 46.8511 28.9548 44.0679 29.3587L35.5053 30.5814C35.176 30.6274 34.8499 30.534 34.5956 30.3137C34.3421 30.0935 34.2022 29.7871 34.2022 29.451C34.2022 28.9259 34.5576 28.4703 35.0675 28.343L37.8967 27.6353C40.7603 26.9194 43.2893 25.3562 45.2098 23.1158L45.845 22.3747C45.8835 22.3753 45.9206 22.3805 45.9592 22.3805C48.3805 22.3805 50.5303 21.2193 51.8987 19.4302L54.2119 20.2015C55.8772 20.7563 57.2028 22.0819 57.7575 23.7472L59.5883 29.239C60.4797 31.9126 60.999 34.6948 61.1326 37.5072L61.8601 52.7839C61.8811 53.2215 61.7261 53.6368 61.4239 53.9541Z" fill="#16B2DA"/>
<path d="M25.1173 30.9312H14.2308L29.6363 14.5627L28.0801 13.0972L12.2051 29.9644L7.42698 15.6295C7.28135 15.1932 6.87319 14.8988 6.41293 14.8988H0V17.0365H5.64258L10.743 32.3381C10.8886 32.7745 11.2968 33.0688 11.757 33.0688H25.1173C28.1867 33.0688 30.8553 34.8044 32.2017 37.3441H28.8582C28.2679 37.3441 27.7894 37.8227 27.7894 38.4129V42.6882C27.7894 43.2785 28.2679 43.757 28.8582 43.757H33.1335V48.0323H26.6352C26.1139 44.4126 23.0004 41.6194 19.2388 41.6194C15.4772 41.6194 12.3637 44.4126 11.8424 48.0323H0V50.17H11.8424C12.3637 53.7897 15.4772 56.5829 19.2388 56.5829C23.0004 56.5829 26.1139 53.7897 26.6352 50.17H34.2023C34.7926 50.17 35.2711 49.6914 35.2711 49.1012V41.085C35.2711 35.4862 30.7161 30.9312 25.1173 30.9312ZM19.2388 54.4453C16.2922 54.4453 13.8947 52.0478 13.8947 49.1012C13.8947 46.1545 16.2922 43.757 19.2388 43.757C22.1854 43.757 24.5829 46.1545 24.5829 49.1012C24.5829 52.0478 22.1854 54.4453 19.2388 54.4453ZM33.1335 41.6194H29.927V39.4818H32.972C33.0776 39.9999 33.1335 40.536 33.1335 41.085V41.6194Z" fill="#16B2DA"/>
<path d="M6.36804 31.6931L3.16158 21.0049C3.02584 20.5524 2.6094 20.243 2.13764 20.243H0V22.3806H1.34231L3.90735 30.9312H0V33.0688H5.34411C5.68173 33.0688 6.0001 32.9092 6.20157 32.6382C6.40358 32.3669 6.46517 32.0167 6.36804 31.6931Z" fill="#16B2DA"/>
<path d="M4.27529 36.2753H0V38.4129H4.27529V36.2753Z" fill="#16B2DA"/>
<path d="M29.927 20.243H27.7894V22.3806H29.927V20.243Z" fill="#16B2DA"/>
<path d="M32.0647 22.3806L29.927 22.3806V24.5182H32.0647V22.3806Z" fill="#16B2DA"/>
<path d="M25.6517 26.6559H23.5141V28.7935H25.6517V26.6559Z" fill="#16B2DA"/>
<path d="M35.2711 14.8988H33.1335V17.0365H35.2711V14.8988Z" fill="#16B2DA"/>
<path d="M40.6152 36.2753H38.4776V38.4129H40.6152V36.2753Z" fill="#16B2DA"/>
<path d="M23.5141 11.6924H21.3764V13.83H23.5141V11.6924Z" fill="#16B2DA"/>
</g>
<defs>
<clipPath id="clip0_203_292">
<rect width="64" height="64" fill="white"/>
</clipPath>
</defs>
</svg>
