<svg width="10" height="22" viewBox="0 0 10 22" fill="none" xmlns="http://www.w3.org/2000/svg">
<path fill-rule="evenodd" clip-rule="evenodd" d="M6.14642 2.61028C6.09351 2.58974 6.03708 2.5805 5.98075 2.58301C5.92443 2.58552 5.86943 2.59973 5.81922 2.6246C5.77068 2.64864 5.72757 2.68218 5.69238 2.72319C4.42259 4.29791 3.54138 6.15003 3.12005 8.1301L3.11823 8.13869C2.71402 9.9597 2.71581 11.8484 3.12372 13.6705L3.12574 13.6796C3.54823 15.6522 4.42648 17.4996 5.6903 19.0738C5.72612 19.1153 5.76991 19.1493 5.81905 19.1737C5.87011 19.1989 5.92574 19.2132 5.98233 19.2157C6.03891 19.2182 6.0952 19.2089 6.1476 19.1884C6.20001 19.1679 6.24746 19.1367 6.28697 19.0969L6.28984 19.094L7.78012 17.6038C7.78598 17.5979 7.79191 17.5921 7.79791 17.5864C7.86947 17.5183 7.91368 17.4261 7.92178 17.3269C7.9298 17.2286 7.90182 17.1303 7.84257 17.0504C7.38334 16.4512 6.99307 15.8022 6.67917 15.1158L6.67817 15.1136C6.64581 15.0424 6.59367 14.9818 6.52796 14.9392C6.4628 14.8969 6.38722 14.8741 6.31016 14.8732L5.0508 14.872C4.60132 14.8715 4.20737 14.5713 4.08782 14.138C3.50103 12.0114 3.49873 9.76663 4.08145 7.64063C4.20063 7.20582 4.59602 6.90453 5.04687 6.90497L6.30624 6.90622C6.38324 6.9055 6.45812 6.88292 6.52227 6.84136C6.58695 6.79945 6.63824 6.73987 6.67008 6.66956L6.67107 6.66736C6.98373 5.98129 7.37287 5.33281 7.83112 4.73424C7.8886 4.65654 7.91646 4.56034 7.90903 4.46296C7.90152 4.36444 7.85839 4.27154 7.78731 4.20185L7.7803 4.19497L6.28777 2.70237C6.28771 2.70231 6.28783 2.70243 6.28777 2.70237C6.24753 2.66225 6.19925 2.63078 6.14642 2.61028ZM5.89169 0.584998C6.22545 0.570121 6.55862 0.624914 6.87001 0.745763C7.1814 0.866609 7.46427 1.05088 7.70065 1.28683L9.19151 2.77769C9.60596 3.18594 9.85899 3.73053 9.90324 4.31089C9.94764 4.89315 9.77885 5.4718 9.42778 5.93871L9.42219 5.94614C9.05427 6.42611 8.74186 6.94626 8.491 7.49674L7.58104 7.08205L8.492 7.49454C8.30217 7.91377 7.99598 8.26964 7.60972 8.51988C7.22348 8.77012 6.77359 8.9041 6.3135 8.90621L6.3079 8.90624L5.83743 8.90576C5.58072 10.2151 5.58227 11.5627 5.84213 12.8728L6.3214 12.8732C6.78145 12.8763 7.23096 13.0111 7.61677 13.2615C8.00216 13.5116 8.30809 13.8667 8.49841 14.2849C8.75044 14.8359 9.06391 15.3567 9.43286 15.8375L9.43834 15.8447C9.79333 16.316 9.96319 16.9014 9.91514 17.4897C9.86746 18.0734 9.60851 18.6195 9.18674 19.0256L7.70693 20.5054C7.70637 20.5059 7.70582 20.5065 7.70527 20.507C7.46955 20.7442 7.18692 20.9296 6.87546 21.0512C6.56328 21.1732 6.22908 21.2285 5.89431 21.2138C5.55955 21.199 5.23158 21.1146 4.93136 20.9659C4.63115 20.8172 4.36523 20.6075 4.15058 20.3503L4.13913 20.3363C2.67673 18.5182 1.66013 16.3833 1.17101 14.1029C0.700349 11.9973 0.698162 9.81463 1.16476 7.70956C1.65259 5.42027 2.67274 3.27886 4.14281 1.4587L4.15278 1.44656C4.36681 1.18991 4.63201 0.980761 4.93145 0.832431C5.23089 0.684103 5.55793 0.599875 5.89169 0.584998Z" fill="#16B2DA"/>
</svg>
