<svg width="64" height="64" viewBox="0 0 64 64" fill="none" xmlns="http://www.w3.org/2000/svg">
<path d="M58 34H54.319C53.8976 32.4566 53.2817 30.973 52.486 29.585L55.092 26.979C55.2795 26.7915 55.3848 26.5372 55.3848 26.272C55.3848 26.0068 55.2795 25.7525 55.092 25.565L50.274 20.748C50.1818 20.6525 50.0714 20.5763 49.9494 20.5239C49.8274 20.4715 49.6962 20.4439 49.5634 20.4427C49.4306 20.4416 49.2989 20.4669 49.176 20.5172C49.0531 20.5675 48.9415 20.6417 48.8476 20.7356C48.7537 20.8295 48.6795 20.9412 48.6292 21.064C48.5789 21.1869 48.5536 21.3186 48.5547 21.4514C48.5559 21.5842 48.5835 21.7154 48.6359 21.8374C48.6883 21.9594 48.7645 22.0698 48.86 22.162L52.971 26.272L50.52 28.724C50.3598 28.8841 50.2587 29.0939 50.2332 29.319C50.2078 29.5441 50.2596 29.7712 50.38 29.963C51.4008 31.579 52.1387 33.3571 52.562 35.221C52.6122 35.4423 52.7361 35.64 52.9135 35.7816C53.0908 35.9231 53.3111 36.0002 53.538 36H57V42H53.538C53.3111 41.9998 53.0908 42.0769 52.9135 42.2184C52.7361 42.36 52.6122 42.5577 52.562 42.779C52.1387 44.6429 51.4008 46.421 50.38 48.037C50.2596 48.2288 50.2078 48.4559 50.2332 48.681C50.2587 48.9061 50.3598 49.1159 50.52 49.276L52.971 51.728L48.728 55.971L46.276 53.52C46.1158 53.3595 45.9058 53.2583 45.6805 53.2329C45.4552 53.2074 45.2279 53.2593 45.036 53.38C43.4202 54.4012 41.642 55.1395 39.778 55.563C39.5569 55.6133 39.3594 55.7374 39.218 55.9147C39.0767 56.0921 38.9998 56.3122 39 56.539V61C39 61.2652 39.1054 61.5196 39.2929 61.7071C39.4804 61.8946 39.7348 62 40 62C40.2652 62 40.5196 61.8946 40.7071 61.7071C40.8946 61.5196 41 61.2652 41 61V57.319C42.5436 56.8982 44.0272 56.2822 45.415 55.486L48.021 58.092C48.2085 58.2795 48.4628 58.3848 48.728 58.3848C48.9932 58.3848 49.2475 58.2795 49.435 58.092L55.092 52.435C55.2795 52.2475 55.3848 51.9932 55.3848 51.728C55.3848 51.4628 55.2795 51.2085 55.092 51.021L52.486 48.415C53.2817 47.027 53.8976 45.5434 54.319 44H58C58.2652 44 58.5196 43.8946 58.7071 43.7071C58.8946 43.5196 59 43.2652 59 43V35C59 34.7348 58.8946 34.4804 58.7071 34.2929C58.5196 34.1054 58.2652 34 58 34Z" fill="#16B2DA"/>
<path d="M36 60H33V56.539C33.0002 56.3122 32.9233 56.0921 32.782 55.9147C32.6406 55.7374 32.4431 55.6133 32.222 55.563C30.358 55.1395 28.5798 54.4012 26.964 53.38C26.7721 53.2593 26.5448 53.2074 26.3195 53.2328C26.0942 53.2583 25.8842 53.3595 25.724 53.52L23.272 55.971L19.029 51.728L21.48 49.276C21.6402 49.1159 21.7413 48.9061 21.7668 48.681C21.7922 48.4559 21.7404 48.2288 21.62 48.037C20.5993 46.4209 19.8611 44.6428 19.437 42.779C19.3869 42.5578 19.2631 42.3603 19.0859 42.2187C18.9088 42.0772 18.6888 42.0001 18.462 42H15V36H18.462C18.6888 35.9999 18.9088 35.9228 19.0859 35.7813C19.2631 35.6397 19.3869 35.4422 19.437 35.221C19.8611 33.3572 20.5993 31.5791 21.62 29.963C21.7404 29.7712 21.7922 29.5441 21.7668 29.319C21.7413 29.0939 21.6402 28.8841 21.48 28.724L19.029 26.272L23.129 22.172C23.2245 22.0798 23.3007 21.9694 23.3531 21.8474C23.4055 21.7254 23.4331 21.5942 23.4342 21.4614C23.4354 21.3286 23.4101 21.1969 23.3598 21.074C23.3095 20.9511 23.2353 20.8395 23.1414 20.7456C23.0475 20.6517 22.9359 20.5775 22.813 20.5272C22.6901 20.4769 22.5584 20.4516 22.4256 20.4527C22.2928 20.4539 22.1616 20.4815 22.0396 20.5339C21.9176 20.5863 21.8072 20.6625 21.715 20.758L16.915 25.563C16.7275 25.7505 16.6222 26.0048 16.6222 26.27C16.6222 26.5352 16.7275 26.7895 16.915 26.977L19.521 29.583C18.7228 30.9713 18.1045 32.4556 17.681 34H14C13.7348 34 13.4804 34.1054 13.2929 34.2929C13.1054 34.4804 13 34.7348 13 35V43C13 43.2652 13.1054 43.5196 13.2929 43.7071C13.4804 43.8946 13.7348 44 14 44H17.681C18.1024 45.5434 18.7183 47.027 19.514 48.415L17.139 50.79C17.0851 49.804 16.6677 48.873 15.9674 48.1768C15.267 47.4806 14.3336 47.0687 13.3473 47.0206C12.361 46.9726 11.3918 47.2918 10.6272 47.9166C9.86248 48.5413 9.3565 49.4274 9.20698 50.4035C9.05746 51.3795 9.27502 52.3764 9.81762 53.2014C10.3602 54.0265 11.1893 54.6211 12.1448 54.8705C13.1003 55.1199 14.1143 55.0063 14.9908 54.5517C15.8674 54.097 16.5444 53.3337 16.891 52.409C16.898 52.417 16.901 52.427 16.908 52.435L20.6 56.122L19.959 57.232L18.581 56.432C18.4083 56.3324 18.2098 56.2868 18.0109 56.3008C17.8121 56.3149 17.622 56.3881 17.465 56.511C16.9545 56.9109 16.3907 57.2377 15.79 57.482C15.6053 57.5567 15.4472 57.6848 15.3359 57.85C15.2245 58.0152 15.165 58.2098 15.165 58.409V60H11.165V58.413C11.165 58.2138 11.1055 58.0192 10.9942 57.854C10.8828 57.6888 10.7247 57.5607 10.54 57.486C9.93898 57.2413 9.37491 56.9141 8.864 56.514C8.70704 56.3915 8.51706 56.3186 8.31841 56.3047C8.11977 56.2908 7.9215 56.3365 7.749 56.436L6.371 57.236L4.371 53.772L5.75 52.972C5.92162 52.8727 6.05983 52.7246 6.14708 52.5465C6.23433 52.3685 6.26667 52.1685 6.24 51.972C6.14004 51.3299 6.14004 50.6761 6.24 50.034C6.26667 49.8375 6.23433 49.6375 6.14708 49.4595C6.05983 49.2814 5.92162 49.1333 5.75 49.034L4.371 48.234L6.371 44.77L7.749 45.57C7.9215 45.6695 8.11977 45.7152 8.31841 45.7013C8.51706 45.6874 8.70704 45.6145 8.864 45.492C9.37491 45.0919 9.93898 44.7647 10.54 44.52C10.7247 44.4453 10.8828 44.3172 10.9942 44.152C11.1055 43.9868 11.165 43.7922 11.165 43.593V41C11.165 40.7348 11.0596 40.4804 10.8721 40.2929C10.6846 40.1054 10.4302 40 10.165 40C9.89978 40 9.64543 40.1054 9.45789 40.2929C9.27036 40.4804 9.165 40.7348 9.165 41V42.942C8.82814 43.1101 8.50217 43.2991 8.189 43.508L6.5 42.536C6.27032 42.4034 5.99737 42.3675 5.7412 42.4361C5.48503 42.5047 5.26661 42.6723 5.134 42.902L2.134 48.102C2.00266 48.3313 1.96744 48.6033 2.03602 48.8585C2.1046 49.1137 2.27141 49.3314 2.5 49.464L4.182 50.435C4.167 50.635 4.16 50.817 4.16 51C4.16 51.183 4.167 51.369 4.182 51.565L2.5 52.536C2.27087 52.6686 2.10367 52.8867 2.03506 53.1423C1.96645 53.398 2.00203 53.6705 2.134 53.9L5.134 59.1C5.26661 59.3297 5.48503 59.4973 5.7412 59.5659C5.99737 59.6345 6.27032 59.5986 6.5 59.466L8.184 58.494C8.49717 58.7029 8.82314 58.8919 9.16 59.06V61C9.16 61.2652 9.26536 61.5196 9.45289 61.7071C9.64043 61.8946 9.89478 62 10.16 62H16.16C16.4252 62 16.6796 61.8946 16.8671 61.7071C17.0546 61.5196 17.16 61.2652 17.16 61V59.058C17.4973 58.8902 17.8236 58.7011 18.137 58.492L19.82 59.464C19.9338 59.5298 20.0594 59.5726 20.1897 59.5898C20.32 59.607 20.4524 59.5984 20.5794 59.5644C20.7063 59.5304 20.8253 59.4717 20.9296 59.3917C21.0339 59.3116 21.1213 59.2119 21.187 59.098L22.06 57.586L22.565 58.092C22.7525 58.2795 23.0068 58.3848 23.272 58.3848C23.5372 58.3848 23.7915 58.2795 23.979 58.092L26.585 55.486C27.9728 56.2822 29.4564 56.8982 31 57.319V61C31 61.2652 31.1054 61.5196 31.2929 61.7071C31.4804 61.8946 31.7348 62 32 62H36C36.2652 62 36.5196 61.8946 36.7071 61.7071C36.8946 61.5196 37 61.2652 37 61C37 60.7348 36.8946 60.4804 36.7071 60.2929C36.5196 60.1054 36.2652 60 36 60ZM13.16 53C12.7644 53 12.3778 52.8827 12.0489 52.6629C11.72 52.4432 11.4636 52.1308 11.3122 51.7654C11.1609 51.3999 11.1213 50.9978 11.1984 50.6098C11.2756 50.2219 11.4661 49.8655 11.7458 49.5858C12.0255 49.3061 12.3819 49.1156 12.7698 49.0384C13.1578 48.9613 13.5599 49.0009 13.9254 49.1522C14.2908 49.3036 14.6032 49.56 14.8229 49.8889C15.0427 50.2178 15.16 50.6044 15.16 51C15.16 51.5304 14.9493 52.0391 14.5742 52.4142C14.1991 52.7893 13.6904 53 13.16 53Z" fill="#16B2DA"/>
<path d="M55 7C53.873 7.00281 52.7633 7.27689 51.7645 7.79905C50.7658 8.32122 49.9074 9.07613 49.262 10H47V9C47.0026 8.41978 46.8361 7.85136 46.5209 7.3642C46.2057 6.87705 45.7555 6.49223 45.2252 6.25678C44.6948 6.02132 44.1074 5.94541 43.5347 6.03833C42.962 6.13125 42.4287 6.38897 42 6.78C41.4547 6.27838 40.7409 5.99996 40 5.99996C39.2591 5.99996 38.5453 6.27838 38 6.78C37.4547 6.27838 36.7409 5.99996 36 5.99996C35.2591 5.99996 34.5453 6.27838 34 6.78C33.5713 6.38897 33.038 6.13125 32.4653 6.03833C31.8926 5.94541 31.3052 6.02132 30.7748 6.25678C30.2445 6.49223 29.7943 6.87705 29.4791 7.3642C29.1639 7.85136 28.9974 8.41978 29 9V9.69C28.5805 9.35746 28.0839 9.13619 27.5562 9.04669C27.0284 8.95719 26.4866 9.00236 25.981 9.178C25.5163 9.34736 25.1011 9.62987 24.773 10H19.929C19.6863 8.33482 18.8529 6.81247 17.5808 5.71092C16.3086 4.60936 14.6828 4.00209 13 4H9C7.14413 4.00212 5.36489 4.7403 4.05259 6.05259C2.7403 7.36489 2.00212 9.14413 2 11C2 11.2652 2.10536 11.5196 2.29289 11.7071C2.48043 11.8946 2.73478 12 3 12H9C9.26522 12 9.51957 11.8946 9.70711 11.7071C9.89464 11.5196 10 11.2652 10 11C10 10.7348 9.89464 10.4804 9.70711 10.2929C9.51957 10.1054 9.26522 10 9 10H4.1C4.33192 8.87133 4.94596 7.85715 5.83857 7.12849C6.73117 6.39983 7.84775 6.00127 9 6H13C14.3256 6.00159 15.5964 6.52888 16.5338 7.46622C17.4711 8.40356 17.9984 9.67441 18 11C18 11.2652 18.1054 11.5196 18.2929 11.7071C18.4804 11.8946 18.7348 12 19 12H24V16H19C18.7348 16 18.4804 16.1054 18.2929 16.2929C18.1054 16.4804 18 16.7348 18 17C17.9984 18.3256 17.4711 19.5964 16.5338 20.5338C15.5964 21.4711 14.3256 21.9984 13 22H9C7.84775 21.9987 6.73117 21.6002 5.83857 20.8715C4.94596 20.1428 4.33192 19.1287 4.1 18H13C13.2652 18 13.5196 17.8946 13.7071 17.7071C13.8946 17.5196 14 17.2652 14 17V11C14 10.7348 13.8946 10.4804 13.7071 10.2929C13.5196 10.1054 13.2652 10 13 10C12.7348 10 12.4804 10.1054 12.2929 10.2929C12.1054 10.4804 12 10.7348 12 11V16H3C2.73478 16 2.48043 16.1054 2.29289 16.2929C2.10536 16.4804 2 16.7348 2 17C2.00212 18.8559 2.7403 20.6351 4.05259 21.9474C5.36489 23.2597 7.14413 23.9979 9 24H13C14.6828 23.9979 16.3086 23.3906 17.5808 22.2891C18.8529 21.1875 19.6863 19.6652 19.929 18H24V19C23.9999 19.1551 24.0358 19.3082 24.105 19.447L28 27.236V30.079C26.545 31.383 25.4306 33.0228 24.754 34.8558C24.0773 36.6887 23.8587 38.6593 24.1174 40.5959C24.376 42.5326 25.104 44.3767 26.238 45.9679C27.3719 47.559 28.8775 48.8489 30.6238 49.7254C32.37 50.6019 34.304 51.0384 36.2574 50.9969C38.2108 50.9555 40.1245 50.4373 41.832 49.4874C43.5394 48.5376 44.9889 47.1849 46.0544 45.5471C47.1198 43.9093 47.7688 42.0359 47.945 40.09C47.9574 39.9589 47.9437 39.8266 47.9049 39.7008C47.866 39.575 47.8026 39.458 47.7185 39.3568C47.6343 39.2555 47.5309 39.1718 47.4143 39.1106C47.2977 39.0494 47.1702 39.0118 47.039 39C46.7755 38.9793 46.5144 39.0625 46.3115 39.2318C46.1085 39.4011 45.9799 39.6431 45.953 39.906C45.791 41.7599 45.1146 43.5318 44 45.022V33.073C44.7269 34.0323 45.2713 35.1169 45.606 36.273C45.6795 36.5269 45.8505 36.7414 46.0816 36.8696C46.3128 36.9977 46.5853 37.0292 46.8396 36.957C47.0939 36.8849 47.3092 36.715 47.4386 36.4845C47.568 36.254 47.6008 35.9816 47.53 35.727C46.9143 33.5439 45.6899 31.5811 44 30.068V27.414L44.367 27.047C45.9673 25.4495 46.9052 23.3065 46.993 21.047C46.9983 20.9157 46.9776 20.7846 46.9322 20.6613C46.8868 20.5379 46.8175 20.4248 46.7284 20.3282C46.5484 20.1331 46.2982 20.0176 46.033 20.007C45.9017 20.0017 45.7706 20.0224 45.6473 20.0678C45.5239 20.1132 45.4108 20.1825 45.3142 20.2716C45.1191 20.4516 45.0036 20.7018 44.993 20.967C44.9247 22.7238 44.1954 24.39 42.951 25.632L42.291 26.292C42.1984 26.3851 42.125 26.4956 42.0751 26.6171C42.0251 26.7385 41.9996 26.8687 42 27V47.018C40.0743 48.4623 37.6922 49.1635 35.2911 48.9928C32.89 48.8222 30.631 47.7912 28.9289 46.0891C27.2268 44.387 26.1958 42.128 26.0252 39.7269C25.8545 37.3258 26.5557 34.9437 28 33.018V41.488C28 41.7532 28.1054 42.0076 28.2929 42.1951C28.4804 42.3826 28.7348 42.488 29 42.488C29.2652 42.488 29.5196 42.3826 29.7071 42.1951C29.8946 42.0076 30 41.7532 30 41.488V27C30.0001 26.8449 29.9642 26.6918 29.895 26.553L26 18.764V12C25.9999 11.7943 26.0632 11.5936 26.1813 11.4252C26.2994 11.2568 26.4666 11.1289 26.66 11.059C27.18 10.872 27.78 11.132 28.311 11.772C28.768 12.3439 29.0116 13.057 29 13.789V18C29 18.2652 29.1054 18.5196 29.2929 18.7071C29.4804 18.8946 29.7348 19 30 19C31.0609 19 32.0783 19.4214 32.8284 20.1716C33.5786 20.9217 34 21.9391 34 23V27C34 27.2652 34.1054 27.5196 34.2929 27.7071C34.4804 27.8946 34.7348 28 35 28C35.2652 28 35.5196 27.8946 35.7071 27.7071C35.8946 27.5196 36 27.2652 36 27V23C36.0001 22.1152 35.8041 21.2413 35.4261 20.4413C35.0481 19.6412 34.4975 18.9349 33.814 18.373C33.878 18.324 33.94 18.273 34 18.22C34.5453 18.7216 35.2591 19 36 19C36.7409 19 37.4547 18.7216 38 18.22C38.5453 18.7216 39.2591 19 40 19C40.7409 19 41.4547 18.7216 42 18.22C42.4287 18.611 42.962 18.8688 43.5347 18.9617C44.1074 19.0546 44.6948 18.9787 45.2252 18.7432C45.7555 18.5078 46.2057 18.123 46.5209 17.6358C46.8361 17.1486 47.0026 16.5802 47 16V12H49.81C49.9854 11.9998 50.1576 11.9535 50.3094 11.8658C50.4612 11.778 50.5873 11.6519 50.675 11.5C51.2253 10.5468 52.0748 9.80181 53.0917 9.3806C54.1086 8.95939 55.2361 8.8855 56.2992 9.17037C57.3624 9.45525 58.3018 10.083 58.9719 10.9562C59.6419 11.8294 60.0051 12.8993 60.0051 14C60.0051 15.1007 59.6419 16.1706 58.9719 17.0438C58.3018 17.917 57.3624 18.5448 56.2992 18.8296C55.2361 19.1145 54.1086 19.0406 53.0917 18.6194C52.0748 18.1982 51.2253 17.4532 50.675 16.5C50.5382 16.2789 50.3207 16.1198 50.0686 16.0563C49.8164 15.9929 49.5495 16.0302 49.3244 16.1602C49.0992 16.2903 48.9336 16.5029 48.8626 16.753C48.7916 17.0031 48.8208 17.2711 48.944 17.5C49.5585 18.5644 50.4424 19.4482 51.5068 20.0626C52.5713 20.677 53.7787 21.0003 55.0077 21C56.2367 20.9997 57.444 20.6759 58.5082 20.061C59.5723 19.4462 60.4559 18.562 61.0699 17.4973C61.6839 16.4327 62.0069 15.2252 62.0062 13.9961C62.0055 12.7671 61.6813 11.5599 61.066 10.496C60.4508 9.43203 59.5663 8.54881 58.5015 7.93512C57.4367 7.32143 56.229 6.99892 55 7ZM31 9C31 8.73478 31.1054 8.48043 31.2929 8.29289C31.4804 8.10536 31.7348 8 32 8C32.2652 8 32.5196 8.10536 32.7071 8.29289C32.8946 8.48043 33 8.73478 33 9V16C33 16.2652 32.8946 16.5196 32.7071 16.7071C32.5196 16.8946 32.2652 17 32 17C31.7348 17 31.4804 16.8946 31.2929 16.7071C31.1054 16.5196 31 16.2652 31 16V9ZM36 17C35.7348 17 35.4804 16.8946 35.2929 16.7071C35.1054 16.5196 35 16.2652 35 16V9C35 8.73478 35.1054 8.48043 35.2929 8.29289C35.4804 8.10536 35.7348 8 36 8C36.2652 8 36.5196 8.10536 36.7071 8.29289C36.8946 8.48043 37 8.73478 37 9V16C37 16.2652 36.8946 16.5196 36.7071 16.7071C36.5196 16.8946 36.2652 17 36 17ZM40 17C39.7348 17 39.4804 16.8946 39.2929 16.7071C39.1054 16.5196 39 16.2652 39 16V9C39 8.73478 39.1054 8.48043 39.2929 8.29289C39.4804 8.10536 39.7348 8 40 8C40.2652 8 40.5196 8.10536 40.7071 8.29289C40.8946 8.48043 41 8.73478 41 9V16C41 16.2652 40.8946 16.5196 40.7071 16.7071C40.5196 16.8946 40.2652 17 40 17ZM45 16C45 16.2652 44.8946 16.5196 44.7071 16.7071C44.5196 16.8946 44.2652 17 44 17C43.7348 17 43.4804 16.8946 43.2929 16.7071C43.1054 16.5196 43 16.2652 43 16V9C43 8.73478 43.1054 8.48043 43.2929 8.29289C43.4804 8.10536 43.7348 8 44 8C44.2652 8 44.5196 8.10536 44.7071 8.29289C44.8946 8.48043 45 8.73478 45 9V16Z" fill="#16B2DA"/>
<path d="M55 13C55.2652 13 55.5196 12.8946 55.7071 12.7071C55.8946 12.5196 56 12.2652 56 12C56 11.7348 55.8946 11.4804 55.7071 11.2929C55.5196 11.1054 55.2652 11 55 11C54.4067 11 53.8266 11.1759 53.3333 11.5056C52.8399 11.8352 52.4554 12.3038 52.2284 12.8519C52.0013 13.4001 51.9419 14.0033 52.0576 14.5853C52.1734 15.1672 52.4591 15.7018 52.8787 16.1213C53.2982 16.5409 53.8328 16.8266 54.4147 16.9424C54.9967 17.0581 55.5999 16.9987 56.148 16.7716C56.6962 16.5446 57.1648 16.1601 57.4944 15.6667C57.8241 15.1734 58 14.5933 58 14C58 13.7348 57.8946 13.4804 57.7071 13.2929C57.5196 13.1054 57.2652 13 57 13C56.7348 13 56.4804 13.1054 56.2929 13.2929C56.1054 13.4804 56 13.7348 56 14C56 14.1978 55.9414 14.3911 55.8315 14.5556C55.7216 14.72 55.5654 14.8482 55.3827 14.9239C55.2 14.9996 54.9989 15.0194 54.8049 14.9808C54.6109 14.9422 54.4327 14.847 54.2929 14.7071C54.153 14.5673 54.0578 14.3891 54.0192 14.1951C53.9806 14.0011 54.0004 13.8 54.0761 13.6173C54.1518 13.4346 54.28 13.2784 54.4444 13.1685C54.6089 13.0586 54.8022 13 55 13Z" fill="#16B2DA"/>
</svg>
