<svg width="64" height="64" viewBox="0 0 64 64" fill="none" xmlns="http://www.w3.org/2000/svg">
<g clip-path="url(#clip0_206_317)">
<path d="M63.9998 10.9755C63.9998 10.9685 63.9989 10.9615 63.9987 10.9544C63.9979 10.9265 63.9963 10.899 63.993 10.8718C63.9918 10.8618 63.9899 10.8518 63.9884 10.8418C63.9847 10.8166 63.9801 10.7919 63.9743 10.7676C63.9721 10.758 63.9695 10.7485 63.9669 10.7389C63.9597 10.7125 63.9514 10.6866 63.9419 10.6611C63.9402 10.6563 63.939 10.6513 63.9372 10.6465L61.3941 4.13627C61.1377 3.48027 60.5168 3.05627 59.8124 3.05627H55.1819C54.6772 3.05627 54.2681 3.4654 54.2681 3.97015C54.2681 4.4749 54.6772 4.88402 55.1819 4.88402H59.7239L61.7478 10.0651H42.6136L41.4147 4.88402H48.4813C48.9861 4.88402 49.3952 4.4749 49.3952 3.97015C49.3952 3.4654 48.9861 3.05627 48.4813 3.05627H40.2652H31.0569H11.5095C10.805 3.05627 10.1843 3.48027 9.92791 4.13652L7.38479 10.6465C7.38291 10.6514 7.38191 10.6564 7.38004 10.6611C7.37054 10.6865 7.36229 10.7124 7.35504 10.7389C7.35241 10.7485 7.34991 10.758 7.34766 10.7676C7.34191 10.792 7.33729 10.8168 7.33354 10.8418C7.33204 10.8518 7.33016 10.8618 7.32891 10.8718C7.32579 10.899 7.32404 10.9265 7.32329 10.9544C7.32316 10.9614 7.32229 10.9684 7.32216 10.9755C7.32216 10.9766 7.32204 10.9778 7.32204 10.9789V24.4051C7.32204 24.9099 7.73116 25.319 8.23591 25.319C8.74066 25.319 9.14978 24.9099 9.14978 24.4051V11.8929H28.5212V25.7839C28.5212 26.3271 28.8412 26.8221 29.3366 27.045C29.518 27.1266 29.7111 27.1665 29.903 27.1665C30.235 27.1665 30.5634 27.0472 30.8209 26.819L35.661 22.531L40.5011 26.8189C40.9075 27.1792 41.4902 27.2679 41.9856 27.045C42.4808 26.822 42.8008 26.3271 42.8008 25.7839V11.8929H62.1722V52.8832C62.1722 53.5389 61.6386 54.0725 60.9828 54.0725H44.2262C44.2262 54.0622 44.225 54.0518 44.2248 54.0414C44.2238 53.9594 44.2208 53.8775 44.2138 53.7963C45.7872 54.2134 47.4683 53.4048 48.0988 51.8586C48.4305 51.0452 48.4256 50.1514 48.085 49.3419C48.0528 49.2657 48.0175 49.1917 47.9802 49.1188C47.9733 49.1054 47.9667 49.0919 47.9598 49.0787C47.9232 49.0092 47.8842 48.9413 47.8431 48.8752C47.8351 48.8623 47.8268 48.8498 47.8187 48.8371C47.7752 48.7692 47.7301 48.7026 47.682 48.6384C47.6811 48.6372 47.6801 48.6361 47.6792 48.6349C47.6315 48.5716 47.581 48.5106 47.5288 48.4509C47.5193 48.4401 47.51 48.4291 47.5003 48.4182C47.4487 48.3607 47.3951 48.3051 47.3396 48.2514C47.3287 48.2409 47.3177 48.2308 47.3067 48.2206C47.2486 48.1659 47.1891 48.1128 47.1271 48.0627C47.125 48.0611 47.1228 48.0594 47.1207 48.0578C47.0597 48.0087 46.9963 47.9622 46.9317 47.9174C46.9201 47.9093 46.9086 47.9011 46.8967 47.8931C46.8321 47.8496 46.7658 47.8084 46.6978 47.7693C46.6922 47.7661 46.6871 47.7623 46.6813 47.7591C47.0676 47.4248 47.3725 47.0018 47.571 46.5151C47.9026 45.7017 47.8977 44.8079 47.5571 43.9983C47.2591 43.2899 46.7352 42.7202 46.0642 42.3667C45.9683 42.3162 45.8695 42.2701 45.7678 42.2287L31.5445 36.4291L38.1652 34.3798C39.7403 33.8922 40.6275 32.2122 40.1427 30.6351C39.9618 30.0463 39.6032 29.5498 39.14 29.187C38.4506 28.6468 37.5292 28.403 36.6155 28.5948C36.6111 28.5958 36.6069 28.5966 36.6025 28.5977C36.5519 28.6091 31.4764 29.7503 26.1755 30.784C25.9404 30.8298 25.7112 30.8741 25.4854 30.9176C25.3046 30.9523 25.1264 30.9866 24.9515 31.0198C24.9013 31.0295 24.8509 31.039 24.801 31.0485C24.4923 31.1071 24.1931 31.1632 23.9024 31.2172C23.7854 31.239 23.6694 31.2605 23.5553 31.2815C16.8981 32.5078 15.028 32.5298 14.509 32.4596C14.507 32.4593 14.5053 32.4591 14.5033 32.4587C14.4954 32.4576 14.4876 32.4565 14.4804 32.4553C14.4751 32.4545 14.4703 32.4536 14.4654 32.4528C14.4619 32.4522 14.4581 32.4516 14.4548 32.4511C14.4224 32.4452 14.3971 32.4391 14.3776 32.4332L14.2279 32.3722L14.4145 31.9146C14.598 31.4646 14.5953 30.9701 14.4069 30.5222C14.3598 30.4102 14.3024 30.3045 14.2359 30.206C14.0364 29.9106 13.7543 29.6806 13.4168 29.543L8.50829 27.5416C8.05841 27.358 7.56379 27.3609 7.11591 27.5492C6.66791 27.7376 6.32029 28.0892 6.13679 28.5391L0.134677 43.2594C-0.244072 44.1883 0.203552 45.2521 1.13243 45.6309L6.04104 47.6324C6.26516 47.7238 6.49704 47.7671 6.72541 47.7671C7.44329 47.7671 8.12504 47.3393 8.41241 46.6347L8.45754 46.5241L9.58928 46.9854C9.58991 46.9857 9.59053 46.9861 9.59128 46.9863C10.6738 47.4277 11.6712 48.0574 12.5344 48.8389C12.6914 48.9811 12.8439 49.1282 12.9918 49.2801C13.1397 49.4319 13.2827 49.5887 13.4208 49.7499C13.4898 49.8306 13.5576 49.9124 13.624 49.9953C14.8819 51.5638 16.5309 52.7942 18.3925 53.5533L19.6658 54.0724H10.3393C9.68353 54.0724 9.14991 53.5388 9.14991 52.8831V50.5707C9.14991 50.0659 8.74078 49.6568 8.23604 49.6568C7.73129 49.6568 7.32216 50.0659 7.32216 50.5707V52.8831C7.32216 54.5467 8.67553 55.9002 10.3393 55.9002H24.1484L35.921 60.7004C36.3262 60.8657 36.7455 60.944 37.1584 60.9439C38.4557 60.9439 39.688 60.1708 40.2073 58.8972C40.4203 58.3748 40.4887 57.8288 40.4313 57.3039C41.0437 57.3918 41.6786 57.3112 42.2541 57.0627C42.839 56.81 43.3237 56.4077 43.668 55.9H60.9829C62.6466 55.9 64 54.5467 64 52.8829V10.979C63.9999 10.9778 63.9998 10.9768 63.9998 10.9755ZM31.7834 4.88402H39.5386L40.7375 10.0651H30.5845L31.7834 4.88402ZM28.7085 10.0651H9.57416L11.598 4.88402H29.9074L28.7085 10.0651ZM40.9733 24.7952H40.9732L36.578 20.9015C36.3166 20.67 35.9889 20.5542 35.6612 20.5542C35.3335 20.5542 35.0056 20.67 34.7442 20.9015L30.3491 24.7952V11.8929H40.9733V24.7952V24.7952ZM6.72316 45.9367L1.8303 43.9417L7.82604 29.2373L12.7189 31.2325L6.72316 45.9367ZM43.2337 51.4518L42.1848 51.0241C42.1843 51.0238 42.1838 51.0237 42.1833 51.0234C42.183 51.0233 42.1826 51.0231 42.1822 51.0229C42.1821 51.0229 42.182 51.0228 42.1818 51.0228L31.2586 46.5689C30.7914 46.3784 30.258 46.6027 30.0674 47.0702C29.8767 47.5376 30.1011 48.0709 30.5686 48.2616L41.4921 52.7156C41.5377 52.7342 41.5818 52.7548 41.6245 52.7774C41.6365 52.7838 41.6476 52.7915 41.6593 52.7982C41.6893 52.8152 41.7195 52.8322 41.7478 52.851C41.7615 52.8602 41.774 52.8707 41.7872 52.8802C41.8123 52.8982 41.838 52.9159 41.8617 52.9354C41.8761 52.9472 41.8891 52.9603 41.903 52.9726C41.9242 52.9914 41.946 53.0097 41.966 53.0297C41.9798 53.0434 41.9922 53.0586 42.0055 53.0728C42.0238 53.0926 42.0427 53.1119 42.06 53.1327C42.0731 53.1486 42.0846 53.1654 42.0971 53.1818C42.1127 53.2023 42.129 53.2224 42.1433 53.2437C42.1555 53.2614 42.1658 53.2802 42.1771 53.2983C42.1901 53.3193 42.2038 53.3399 42.2157 53.3615C42.2265 53.381 42.2355 53.4014 42.2453 53.4213C42.2558 53.4427 42.2672 53.4637 42.2767 53.4855C42.2858 53.5065 42.2932 53.5283 42.3013 53.5497C42.3096 53.5713 42.3186 53.5925 42.3258 53.6145C42.3331 53.6367 42.3386 53.6593 42.3447 53.6817C42.3508 53.7038 42.3577 53.7255 42.3628 53.7479C42.368 53.7705 42.3712 53.7935 42.3753 53.8163C42.3795 53.839 42.3842 53.8615 42.3872 53.8845C42.3902 53.9075 42.3913 53.9308 42.3932 53.9539C42.3951 53.9772 42.3978 54.0003 42.3986 54.0235C42.3993 54.0464 42.3982 54.0695 42.398 54.0925C42.3977 54.1163 42.3981 54.14 42.3966 54.1639C42.3952 54.1865 42.3918 54.2092 42.3893 54.2318C42.3867 54.2562 42.3847 54.2805 42.3807 54.3048C42.3771 54.327 42.3715 54.3492 42.3668 54.3714C42.3616 54.396 42.3572 54.4207 42.3506 54.4452C42.3448 54.4668 42.3371 54.4883 42.3302 54.5098C42.3225 54.5343 42.3153 54.5588 42.3062 54.5829C42.2985 54.5995 42.2908 54.6163 42.2837 54.6332C42.2821 54.637 42.2812 54.641 42.2797 54.6448C42.137 54.9744 41.8735 55.2363 41.5293 55.3849C41.1506 55.5483 40.717 55.554 40.3395 55.4L38.4041 54.6109C38.3951 54.6073 38.386 54.6048 38.377 54.6014C38.3678 54.5973 38.3592 54.5925 38.35 54.5888L29.4655 50.9662C28.9979 50.7757 28.4647 50.9999 28.2742 51.4674C28.0836 51.9348 28.308 52.4682 28.7754 52.6588L37.6599 56.2814C37.6694 56.2853 37.679 56.288 37.6886 56.2915C37.6972 56.2953 37.7052 56.2999 37.7141 56.3034C38.4597 56.6075 38.8191 57.4615 38.5151 58.2072C38.211 58.953 37.3574 59.3125 36.6114 59.0082L24.6745 54.1409C24.674 54.1407 24.6735 54.1404 24.673 54.1402L19.083 51.8608C18.099 51.4596 17.1853 50.9027 16.3786 50.2176C15.8946 49.8064 15.4493 49.3493 15.0503 48.8518C14.6571 48.3617 14.2259 47.9046 13.7619 47.4844C12.741 46.5603 11.5617 45.8157 10.2818 45.2937C10.2817 45.2937 10.2815 45.2936 10.2814 45.2936L9.14816 44.8316L11.4053 39.296L13.5383 34.0648L13.6957 34.129C13.8438 34.1893 14.055 34.2751 14.6235 34.2966C15.3338 34.3287 16.5088 34.2546 18.6138 33.9572C20.0456 33.755 21.802 33.4625 23.8524 33.0852C23.9029 33.076 23.953 33.0667 24.004 33.0573C24.0999 33.0396 24.1968 33.0216 24.294 33.0036C24.3696 32.9896 24.4456 32.9753 24.5223 32.961C24.6095 32.9446 24.6971 32.9282 24.7854 32.9116C24.879 32.894 24.9738 32.8761 25.069 32.858C25.1453 32.8435 25.2214 32.8291 25.2984 32.8145C25.4145 32.7923 25.5326 32.7697 25.6511 32.747C25.7121 32.7352 25.7725 32.7237 25.834 32.712C26.0155 32.677 26.1994 32.6415 26.3866 32.6051C31.6692 31.5776 36.768 30.434 36.9971 30.3825C37.02 30.3777 37.0429 30.375 37.0657 30.3716C37.6527 30.2847 38.2279 30.6242 38.3962 31.172C38.4554 31.3645 38.4622 31.5608 38.425 31.7456C38.3431 32.1522 38.0476 32.5031 37.6252 32.6337L28.565 35.438C28.1961 35.5522 27.9389 35.8856 27.9222 36.2713C27.9055 36.657 28.1327 37.0116 28.4902 37.1573L45.0782 43.9212C45.4395 44.0684 45.7217 44.3476 45.873 44.7072C46.0242 45.0668 46.0265 45.4638 45.8791 45.8249C45.7317 46.1862 45.4527 46.4684 45.0931 46.6197C44.9133 46.6952 44.7242 46.7334 44.5348 46.7346C44.5321 46.7346 44.5293 46.7342 44.5266 46.7342C44.4821 46.7342 44.4377 46.7324 44.3933 46.7283C44.3802 46.7271 44.3672 46.7243 44.3541 46.7228C44.3202 46.7187 44.2863 46.7148 44.2527 46.7083C44.2315 46.7042 44.2105 46.6979 44.1893 46.6929C44.1641 46.6869 44.1387 46.6818 44.1137 46.6744C44.0878 46.6668 44.0625 46.6567 44.037 46.6476C44.0167 46.6403 43.9961 46.6343 43.9761 46.6262L33.0516 42.1717C32.5842 41.9811 32.051 42.2054 31.8604 42.6729C31.6697 43.1403 31.8941 43.6737 32.3616 43.8643L45.606 49.2647C45.6963 49.3014 45.7817 49.3466 45.8613 49.3991C46.1002 49.5566 46.2873 49.7809 46.4007 50.0507C46.5331 50.3653 46.5513 50.7086 46.4551 51.0314C46.4413 51.0776 46.4252 51.1233 46.4068 51.1684C46.3878 51.2151 46.3667 51.2602 46.3436 51.3037C46.2897 51.4049 46.2241 51.4964 46.1508 51.5798C46.1053 51.6316 46.0567 51.6798 46.005 51.7241C45.9967 51.7311 45.9892 51.7391 45.9808 51.7458C45.6473 52.0186 45.2015 52.1358 44.7658 52.0478C44.6775 52.0299 44.5896 52.0046 44.5031 51.9693L43.2337 51.4518Z" fill="#16B2DA"/>
</g>
<defs>
<clipPath id="clip0_206_317">
<rect width="64" height="64" fill="white"/>
</clipPath>
</defs>
</svg>
